<svg width="45" height="9" viewBox="0 0 45 9" fill="none" xmlns="http://www.w3.org/2000/svg">
<path d="M8.48543 0.883043L8.11214 2.48458H5.54728L4.0782 8.83051H2.00705L3.47612 2.48458H0.887176L1.26047 0.883043H8.48543ZM7.54167 8.83051L9.52854 0.256879H11.5756L10.6725 4.18244L10.4678 4.47144C10.5721 4.13428 10.7287 3.83324 10.9374 3.56832C11.1461 3.30341 11.407 3.09067 11.7201 2.93012C12.0332 2.76956 12.3904 2.68928 12.7918 2.68928C13.1932 2.68928 13.5344 2.7816 13.8153 2.96624C14.1043 3.15088 14.305 3.41178 14.4174 3.74895C14.5378 4.08611 14.5459 4.4875 14.4415 4.95311L13.5384 8.83051H11.4913L12.3222 5.27823C12.3944 4.95712 12.3663 4.70826 12.2379 4.53165C12.1095 4.34701 11.9007 4.25469 11.6117 4.25469C11.395 4.25469 11.2023 4.30687 11.0337 4.41123C10.8732 4.50757 10.7327 4.65608 10.6123 4.85677C10.4999 5.04944 10.4116 5.29027 10.3474 5.57927L9.58874 8.83051H7.54167ZM18.2753 8.93888C17.6812 8.93888 17.1594 8.82649 16.7099 8.60171C16.2603 8.36891 15.9111 8.0478 15.6622 7.63839C15.4134 7.22897 15.2889 6.75132 15.2889 6.20543C15.2889 5.5311 15.4254 4.93304 15.6984 4.41123C15.9793 3.8814 16.3727 3.46396 16.8784 3.15891C17.3922 2.85385 18.0023 2.70133 18.7088 2.70133C19.2948 2.70133 19.7925 2.81371 20.2019 3.03849C20.6194 3.25524 20.9365 3.56431 21.1532 3.96569C21.37 4.36708 21.4783 4.84072 21.4783 5.3866C21.4783 5.53913 21.4703 5.69969 21.4542 5.86827C21.4382 6.03685 21.4061 6.20142 21.3579 6.36198H16.6135V5.25415H20.0213L19.4553 5.56723C19.4874 5.45484 19.5075 5.35851 19.5155 5.27823C19.5236 5.19795 19.5276 5.12169 19.5276 5.04944C19.5276 4.84072 19.4915 4.66812 19.4192 4.53165C19.347 4.39518 19.2466 4.29483 19.1182 4.23061C18.9897 4.15836 18.8372 4.12224 18.6606 4.12224C18.3716 4.12224 18.1308 4.19047 17.9381 4.32694C17.7535 4.46341 17.6049 4.64404 17.4926 4.86882C17.3802 5.08556 17.2999 5.32238 17.2517 5.57927C17.2116 5.83616 17.1915 6.08502 17.1915 6.32585C17.1915 6.58274 17.2397 6.79949 17.336 6.9761C17.4404 7.15271 17.5768 7.28918 17.7454 7.38551C17.922 7.47382 18.1267 7.51797 18.3596 7.51797C18.6486 7.51797 18.8814 7.45375 19.058 7.3253C19.2346 7.18883 19.371 7.02025 19.4674 6.81956L21.1532 7.48185C21.0167 7.7869 20.804 8.0478 20.515 8.26455C20.234 8.4813 19.9009 8.64988 19.5155 8.7703C19.1382 8.88269 18.7248 8.93888 18.2753 8.93888ZM22.7672 8.83051V0.883043H26.6325C27.6119 0.89107 28.3344 1.07972 28.8 1.449C29.2656 1.81025 29.4984 2.33606 29.4984 3.02645C29.4984 3.476 29.366 3.86535 29.101 4.19449C28.8361 4.51559 28.4307 4.7203 27.8848 4.80861V4.82065C28.4949 4.90093 28.9485 5.11366 29.2455 5.45885C29.5506 5.79602 29.7031 6.20543 29.7031 6.6871C29.7031 7.36946 29.4623 7.89929 28.9806 8.27659C28.499 8.64587 27.7765 8.83051 26.8131 8.83051H22.7672ZM24.7661 7.37347H26.4639C26.8412 7.37347 27.1222 7.29721 27.3068 7.14468C27.4915 6.99215 27.5838 6.77139 27.5838 6.48239C27.5838 6.20142 27.4915 5.98869 27.3068 5.84419C27.1222 5.69166 26.8412 5.6154 26.4639 5.6154H24.7661V7.37347ZM24.7661 4.13428H26.2713C27.0098 4.13428 27.3791 3.84528 27.3791 3.26728C27.3791 2.68928 27.0098 2.40029 26.2713 2.40029H24.7661V4.13428ZM33.7201 2.68928C34.3543 2.68928 34.9082 2.81371 35.3819 3.06257C35.8635 3.30341 36.2368 3.66064 36.5017 4.13428C36.7747 4.59989 36.9112 5.16183 36.9112 5.8201C36.9112 6.47838 36.7747 7.04433 36.5017 7.51797C36.2368 7.98358 35.8635 8.34081 35.3819 8.58967C34.9082 8.83051 34.3543 8.95092 33.7201 8.95092C33.102 8.95092 32.5521 8.83051 32.0704 8.58967C31.5888 8.34081 31.2115 7.98358 30.9385 7.51797C30.6736 7.04433 30.5411 6.47838 30.5411 5.8201C30.5411 5.16183 30.6736 4.59989 30.9385 4.13428C31.2115 3.66064 31.5888 3.30341 32.0704 3.06257C32.5521 2.81371 33.102 2.68928 33.7201 2.68928ZM33.7201 4.14632C33.4873 4.14632 33.2866 4.20251 33.1181 4.3149C32.9495 4.42729 32.821 4.60791 32.7327 4.85677C32.6444 5.10563 32.6003 5.42674 32.6003 5.8201C32.6003 6.21346 32.6444 6.53457 32.7327 6.78343C32.821 7.02426 32.9495 7.20489 33.1181 7.3253C33.2866 7.43769 33.4873 7.49389 33.7201 7.49389C33.961 7.49389 34.1657 7.43769 34.3343 7.3253C34.5028 7.20489 34.6313 7.02426 34.7196 6.78343C34.8079 6.53457 34.852 6.21346 34.852 5.8201C34.852 5.42674 34.8079 5.10563 34.7196 4.85677C34.6313 4.60791 34.5028 4.42729 34.3343 4.3149C34.1657 4.20251 33.961 4.14632 33.7201 4.14632ZM39.5036 2.8097L40.9727 5.51906L41.647 5.45885L44.0192 8.83051H41.6711L40.1538 6.08502H39.4434L37.1434 2.8097H39.5036ZM43.971 2.8097L41.6952 6.06094L40.9365 6.01277L39.3591 8.83051H37.0591L39.4795 5.43477L40.1779 5.5311L41.6711 2.8097H43.971Z" fill="#2947A9"/>
</svg>
